<svg xmlns="http://www.w3.org/2000/svg" width="746" height="632" viewBox="0 0 746 632" fill="none">
<g shape-rendering="geometricPrecision">
  <path fill="#fefbeb" fill-rule="evenodd" clip-rule="evenodd" d="M 420 516 L 422 516 L 426 514 L 429 511 L 432 510 L 440 504 L 445 502 L 446 500 L 450 499 L 453 496 L 459 494 L 461 492 L 466 490 L 470 487 L 472 487 L 479 483 L 481 483 L 483 481 L 486 480 L 486 478 L 420 478 Z M 346 478 L 346 532 L 348 535 L 351 536 L 353 539 L 358 542 L 371 554 L 373 554 L 398 532 L 398 478 Z M 524 290 L 473 290 L 473 351 L 471 353 L 346 353 L 346 392 L 437 392 L 530 308 L 530 305 L 525 297 Z M 285 290 L 285 458 L 497 458 L 497 413 L 324 412 L 325 332 L 451 332 L 451 290 Z M 173 215 L 172 216 L 172 318 L 175 319 L 196 335 L 226 355 L 258 379 L 262 380 L 262 285 L 181 214 Z M 285 270 L 324 269 L 325 207 L 487 207 L 525 166 L 526 162 L 285 162 Z M 645 49 L 590 59 L 530 79 L 424 135 L 424 142 L 541 142 L 549 109 L 568 97 L 587 96 L 603 103 L 618 127 L 616 149 L 603 165 L 583 172 L 555 166 L 498 227 L 346 227 L 346 270 L 525 270 L 536 255 L 554 247 L 577 251 L 591 264 L 596 289 L 587 308 L 571 318 L 549 320 L 471 390 L 519 393 L 519 467 L 582 448 L 645 438 Z M 100 49 L 100 438 L 165 448 L 220 464 L 324 516 L 324 478 L 262 477 L 262 407 L 150 328 L 150 217 L 129 203 L 121 185 L 122 169 L 134 151 L 149 143 L 175 144 L 192 157 L 199 170 L 196 199 L 262 256 L 262 143 L 322 142 L 322 135 L 274 106 L 212 78 L 150 58 Z"/>
  <path fill="#e9d4b4" fill-rule="evenodd" clip-rule="evenodd" d="M 556 269 L 551 271 L 545 278 L 545 287 L 549 294 L 555 297 L 561 298 L 568 295 L 571 292 L 573 288 L 573 278 L 568 271 L 566 271 L 563 269 Z M 156 164 L 149 168 L 146 172 L 144 177 L 144 183 L 145 184 L 145 186 L 148 191 L 154 195 L 157 195 L 158 196 L 167 195 L 172 192 L 176 186 L 176 182 L 177 181 L 176 174 L 171 167 L 165 164 Z M 575 118 L 574 119 L 572 119 L 568 122 L 565 126 L 565 128 L 564 129 L 564 141 L 571 149 L 573 149 L 574 150 L 584 150 L 592 145 L 595 139 L 595 128 L 589 120 L 584 118 Z M 696 111 L 670 119 L 669 458 L 579 472 L 517 492 L 438 532 L 401 564 L 465 534 L 541 510 L 608 498 L 696 492 Z M 48 111 L 48 491 L 116 495 L 206 511 L 281 535 L 344 565 L 331 551 L 291 523 L 218 488 L 148 468 L 76 458 L 73 440 L 73 119 Z"/>
  <path fill="#826543" fill-rule="evenodd" clip-rule="evenodd" d="M 24 83 L 24 513 L 99 515 L 212 535 L 307 570 L 370 607 L 445 566 L 530 535 L 617 518 L 721 516 L 721 83 L 668 93 L 668 23 L 568 44 L 504 68 L 407 123 L 400 145 L 344 146 L 341 125 L 248 72 L 162 40 L 77 21 L 75 95 Z M 417 518 L 417 477 L 419 475 L 423 475 L 424 474 L 494 474 L 495 475 L 495 479 L 491 482 L 487 483 L 448 503 L 445 506 L 440 508 L 432 514 L 429 515 L 426 518 L 424 519 L 418 519 Z M 344 475 L 350 475 L 351 474 L 393 474 L 394 475 L 400 475 L 402 477 L 402 479 L 403 480 L 403 506 L 402 507 L 402 509 L 403 510 L 403 531 L 397 538 L 389 544 L 374 558 L 370 558 L 363 551 L 362 551 L 360 548 L 354 544 L 342 533 L 342 478 Z M 527 289 L 529 297 L 534 304 L 534 309 L 439 395 L 345 396 L 342 393 L 342 352 L 344 349 L 468 349 L 469 289 L 472 286 L 524 286 Z M 281 289 L 285 286 L 451 286 L 455 290 L 453 335 L 328 336 L 328 409 L 498 409 L 501 412 L 501 457 L 496 462 L 284 461 L 281 458 Z M 557 263 L 565 264 L 571 267 L 576 273 L 579 280 L 579 286 L 577 289 L 577 291 L 575 295 L 571 299 L 568 300 L 566 302 L 553 302 L 551 301 L 542 293 L 540 288 L 540 278 L 543 272 L 548 267 Z M 170 213 L 177 210 L 182 210 L 266 284 L 266 383 L 265 384 L 260 384 L 256 382 L 248 375 L 169 319 L 168 317 L 168 216 Z M 281 271 L 281 161 L 283 159 L 530 160 L 530 165 L 487 211 L 328 211 L 328 270 L 324 274 L 286 274 Z M 154 159 L 167 159 L 171 161 L 179 169 L 181 173 L 182 182 L 181 183 L 180 190 L 172 198 L 166 201 L 155 201 L 149 198 L 141 190 L 141 188 L 139 184 L 139 176 L 140 175 L 141 170 L 150 161 Z M 575 113 L 584 113 L 591 116 L 596 120 L 597 123 L 600 127 L 600 140 L 597 146 L 592 151 L 584 155 L 573 155 L 572 154 L 570 154 L 561 146 L 560 142 L 558 139 L 558 131 L 561 123 L 569 115 L 571 115 Z M 700 106 L 701 495 L 606 503 L 525 519 L 465 539 L 390 574 L 389 568 L 427 535 L 500 494 L 592 464 L 665 454 L 665 118 Z M 44 106 L 69 112 L 79 119 L 79 454 L 166 467 L 238 491 L 318 536 L 352 565 L 354 574 L 279 539 L 202 515 L 140 503 L 43 494 Z M 648 45 L 649 439 L 518 471 L 515 396 L 468 396 L 467 389 L 550 315 L 571 314 L 584 306 L 592 291 L 588 266 L 570 252 L 552 251 L 521 274 L 346 274 L 342 227 L 497 223 L 554 162 L 575 168 L 601 162 L 613 146 L 613 122 L 601 106 L 581 99 L 551 112 L 542 146 L 423 146 L 420 135 L 462 107 L 530 75 L 590 55 Z M 99 44 L 217 76 L 276 103 L 326 135 L 324 146 L 266 146 L 265 260 L 258 259 L 193 201 L 196 174 L 181 151 L 167 146 L 140 151 L 128 164 L 125 187 L 136 206 L 153 216 L 153 326 L 266 407 L 266 474 L 325 475 L 327 520 L 218 467 L 96 439 Z"/>
  <path fill="#58381f" fill-rule="evenodd" clip-rule="evenodd" d="M 287 459 L 287 461 L 488 461 L 488 459 Z M 466 271 L 466 273 L 491 273 L 491 271 Z M 354 271 L 354 273 L 447 273 L 447 271 Z M 348 143 L 348 145 L 350 145 L 351 144 L 395 144 L 395 142 L 351 142 L 350 143 Z"/>
</g></svg>